<?xml version="1.0" standalone="no"?>
<!DOCTYPE svg PUBLIC "-//W3C//DTD SVG 20010904//EN"
 "http://www.w3.org/TR/2001/REC-SVG-20010904/DTD/svg10.dtd">
<svg version="1.0" xmlns="http://www.w3.org/2000/svg"
 width="1024.000000pt" height="1024.000000pt" viewBox="0 0 1024.000000 1024.000000"
 preserveAspectRatio="xMidYMid meet">
<metadata>
Created by potrace 1.14, written by Peter Selinger 2001-2017
</metadata>
<g transform="translate(0.000000,1024.000000) scale(0.100000,-0.100000)"
fill="#000000" stroke="none">
<path d="M3055 9357 c-66 -32 -99 -69 -185 -206 -249 -397 -361 -636 -470
-1005 -93 -318 -133 -576 -128 -837 l3 -146 132 142 c82 88 149 151 177 166
l45 23 10 86 c43 337 131 634 285 962 80 171 225 388 259 388 7 0 49 -38 94
-84 166 -172 437 -578 418 -628 -3 -8 -25 -25 -48 -38 -23 -13 -111 -71 -196
-129 -220 -150 -406 -317 -741 -666 -157 -163 -283 -281 -381 -355 -135 -103
-312 -322 -484 -600 -150 -241 -231 -461 -260 -704 l-7 -59 64 70 c105 117
328 326 415 390 211 156 521 293 662 293 l58 0 7 45 c3 25 18 81 32 123 108
317 326 578 537 644 34 10 66 23 71 28 15 15 -12 37 -92 76 -121 57 -140 83
-108 157 24 57 53 74 138 81 90 8 149 -4 231 -47 174 -91 330 -424 378 -807 6
-52 14 -98 18 -102 3 -3 31 -9 61 -13 l55 -7 18 214 c28 344 80 597 174 847
60 163 178 381 247 459 24 26 64 73 89 105 45 56 62 55 33 -1 -20 -40 -80
-211 -121 -347 -67 -221 -133 -524 -160 -725 -22 -165 -56 -559 -50 -568 1 -1
14 2 29 8 15 5 51 10 81 10 33 0 59 5 68 14 8 8 26 63 40 121 54 220 189 501
296 618 99 107 242 193 379 228 58 15 110 19 228 19 l153 0 26 -27 c14 -15 25
-34 25 -42 0 -40 -127 -122 -299 -194 -25 -10 -24 -11 20 -18 26 -4 71 -23
101 -42 30 -19 106 -60 169 -92 137 -69 193 -110 302 -224 126 -134 197 -251
277 -456 17 -45 32 -69 40 -67 181 42 440 22 658 -50 126 -41 318 -140 457
-233 95 -64 348 -255 437 -330 16 -14 33 -25 37 -25 11 0 -35 235 -60 305 -42
118 -154 307 -268 450 -100 126 -187 221 -383 417 -107 106 -260 265 -340 353
-217 237 -470 454 -738 634 -145 97 -152 104 -140 137 21 55 151 308 199 388
133 219 334 446 396 446 25 0 92 -71 187 -200 204 -274 410 -715 474 -1011 26
-122 43 -296 44 -436 0 -72 3 -139 6 -148 4 -8 20 -23 36 -31 17 -9 67 -50
112 -93 44 -42 103 -96 130 -118 93 -78 318 -388 398 -548 112 -223 163 -504
139 -769 -10 -109 -26 -166 -49 -166 -4 0 -45 34 -92 76 -106 94 -172 145
-230 174 -25 13 -72 41 -105 63 -127 86 -141 94 -183 104 l-43 11 -20 -39
c-10 -21 -24 -39 -30 -39 -5 0 -31 20 -57 44 -79 73 -182 111 -256 92 -37 -9
-34 -39 19 -193 63 -185 78 -289 71 -493 -7 -207 -16 -264 -70 -421 -30 -90
-60 -154 -102 -220 -66 -105 -208 -256 -269 -287 -22 -11 -57 -41 -78 -66 -50
-61 -261 -224 -422 -326 -145 -92 -448 -296 -600 -404 -130 -92 -386 -347
-491 -488 -123 -165 -267 -419 -334 -588 -153 -385 -182 -881 -73 -1260 41
-146 105 -263 184 -341 62 -61 110 -91 125 -77 2 3 -8 88 -22 189 -75 530 -23
919 176 1324 115 235 211 362 387 520 238 213 476 357 1043 631 157 76 367
185 467 242 154 89 205 125 340 240 270 231 430 410 570 640 133 216 190 354
263 637 23 88 60 224 83 302 l41 142 38 -68 c37 -67 39 -74 58 -257 54 -510
33 -806 -87 -1234 -71 -253 -180 -501 -323 -729 -151 -241 -369 -510 -611
-754 -92 -93 -169 -177 -172 -188 -5 -17 0 -19 42 -19 70 0 141 24 283 97 141
71 203 114 353 244 278 240 518 556 702 924 184 368 284 891 255 1331 -40 596
-192 1126 -464 1623 -154 280 -205 360 -388 606 -123 165 -253 315 -263 305
-3 -3 1 -34 9 -70 26 -122 13 -310 -31 -457 -17 -57 -30 -64 -66 -34 l-24 19
-6 334 c-5 276 -10 353 -27 448 -90 494 -423 1129 -810 1542 -109 116 -215
147 -320 94 -65 -34 -229 -182 -343 -312 -128 -146 -203 -244 -365 -472 -12
-17 -22 -22 -38 -18 -11 4 -122 24 -246 46 -489 86 -895 75 -1301 -34 -68 -18
-131 -36 -139 -39 -10 -5 -28 11 -58 51 -142 191 -224 298 -274 358 -119 145
-365 382 -430 415 -64 33 -133 35 -193 6z"/>
<path d="M3115 8359 c-98 -92 -174 -286 -175 -441 0 -46 14 -64 27 -33 8 23
222 197 285 234 l55 31 -23 92 c-12 51 -25 110 -29 131 -6 36 -7 37 -46 37
-35 0 -48 -7 -94 -51z"/>
<path d="M6481 8363 c-6 -21 -24 -90 -40 -153 -17 -63 -37 -132 -45 -152 -9
-21 -16 -41 -16 -46 0 -5 30 -29 67 -53 125 -81 343 -284 399 -372 16 -26 32
-47 35 -47 14 0 19 140 9 230 -24 216 -101 405 -215 528 -74 79 -108 102 -154
102 -26 0 -31 -5 -40 -37z"/>
<path d="M5165 6816 c-72 -23 -119 -53 -176 -113 -65 -68 -97 -126 -129 -233
-12 -41 -42 -135 -66 -209 -24 -74 -42 -136 -40 -138 2 -2 20 6 41 18 84 50
222 61 392 32 81 -13 109 -14 166 -5 118 21 204 78 266 179 35 57 68 76 189
112 45 14 72 27 69 34 -2 7 -33 30 -70 52 -36 22 -107 76 -158 120 -118 103
-161 131 -234 150 -71 18 -194 19 -250 1z m150 -170 c35 -15 65 -59 65 -96 0
-93 -137 -157 -204 -95 -37 34 -49 71 -36 110 13 40 38 63 87 81 48 17 47 17
88 0z"/>
<path d="M3285 6808 c-58 -21 -104 -58 -175 -140 -40 -46 -95 -102 -124 -125
-28 -24 -51 -48 -51 -54 0 -6 36 -24 80 -41 92 -35 110 -48 137 -101 27 -54
95 -125 141 -148 21 -11 67 -25 103 -32 l65 -12 -42 -60 c-55 -79 -188 -230
-293 -333 -46 -45 -110 -115 -143 -155 -32 -39 -85 -104 -118 -143 -80 -96
-120 -164 -155 -266 -48 -142 -63 -230 -63 -378 -1 -127 1 -141 33 -234 19
-57 53 -129 80 -170 54 -83 159 -183 239 -228 81 -45 100 -65 118 -128 13 -47
29 -69 107 -149 50 -51 118 -112 151 -136 68 -48 229 -119 320 -140 97 -22
292 -45 385 -45 90 0 116 4 360 45 356 60 497 99 670 186 141 70 153 85 220
255 41 105 49 144 28 144 -6 0 -53 -25 -103 -55 -172 -102 -441 -220 -629
-275 -359 -104 -811 -90 -1089 34 -99 44 -188 146 -166 188 20 37 44 40 151
19 57 -11 164 -25 238 -31 74 -6 191 -15 260 -21 149 -13 390 1 520 30 358 80
700 295 1055 663 178 184 275 329 275 412 0 57 -112 104 -216 91 -68 -8 -187
-66 -214 -105 -23 -32 -20 -37 38 -46 23 -4 49 -12 58 -18 15 -11 15 -15 1
-42 -34 -65 -347 -348 -562 -507 -97 -72 -240 -139 -420 -196 -225 -73 -456
-64 -702 25 -137 49 -230 101 -259 143 -29 43 -30 51 -5 51 11 0 22 4 25 9 3
4 34 19 68 31 112 41 171 77 253 153 96 89 127 145 133 236 10 143 -48 256
-172 339 -91 61 -185 88 -362 104 -112 10 -144 9 -239 -5 -60 -10 -120 -20
-133 -23 l-22 -6 24 42 c13 23 104 133 202 243 225 253 350 409 365 455 8 23
10 74 6 146 -9 193 -79 362 -184 442 -83 63 -193 88 -268 62z m176 -197 c22
-23 29 -39 29 -69 0 -84 -105 -136 -157 -79 -49 53 -53 106 -10 144 46 43 98
44 138 4z m59 -1361 c165 -20 273 -68 304 -134 17 -36 22 -136 7 -136 -5 0
-32 15 -60 34 -103 70 -209 70 -269 1 -54 -61 -51 -170 8 -323 24 -61 26 -72
12 -67 -9 4 -61 9 -114 12 l-98 6 0 61 c-1 102 -19 208 -43 256 -56 108 -164
119 -264 27 -13 -11 -26 -17 -30 -13 -5 4 -8 36 -8 71 0 76 18 101 110 147
114 58 273 79 445 58z m-575 -393 c33 -35 80 -76 105 -91 25 -16 70 -52 100
-81 30 -29 87 -72 125 -96 82 -50 115 -77 115 -96 0 -44 -81 -102 -172 -122
-90 -21 -191 61 -264 214 -55 115 -105 335 -76 335 4 0 35 -29 67 -63z"/>
<path d="M2295 5914 c-42 -22 -80 -60 -130 -129 -166 -232 -224 -517 -212
-1035 9 -385 52 -667 166 -1091 65 -241 196 -569 326 -814 160 -302 325 -552
530 -805 169 -207 255 -299 410 -435 167 -146 251 -207 405 -296 106 -61 134
-73 182 -77 47 -3 59 -1 64 12 10 27 -34 97 -110 176 -164 169 -518 597 -694
837 -368 503 -560 888 -736 1475 -159 532 -216 974 -187 1463 13 223 27 324
78 538 27 116 34 163 27 175 -14 22 -82 25 -119 6z"/>
<path d="M4761 5004 c-25 -20 -31 -34 -31 -64 0 -30 6 -44 31 -64 37 -32 58
-33 93 -5 56 44 54 114 -5 144 -39 21 -53 19 -88 -11z"/>
<path d="M4403 4980 c-50 -21 -60 -105 -17 -139 64 -50 156 1 139 77 -11 53
-71 84 -122 62z"/>
<path d="M4673 4734 c-49 -50 -9 -139 62 -137 51 1 65 17 65 75 0 70 -12 88
-61 88 -30 0 -47 -7 -66 -26z"/>
<path d="M4309 4679 c-33 -63 51 -159 107 -121 36 24 44 92 14 122 -29 29
-105 28 -121 -1z"/>
<path d="M7468 3427 c-37 -23 -116 -75 -175 -116 -122 -84 -256 -150 -453
-223 -74 -28 -194 -76 -265 -108 -425 -188 -657 -335 -894 -565 -293 -284
-442 -587 -491 -998 -11 -94 -8 -160 16 -294 25 -139 67 -214 156 -273 29 -19
69 -48 88 -64 l35 -30 6 215 c9 298 39 443 139 668 117 267 325 503 606 688
134 89 273 169 370 214 108 50 315 162 457 246 167 100 476 394 512 486 16 41
15 45 -4 95 -12 29 -21 64 -21 77 0 14 -3 25 -7 25 -5 0 -38 -20 -75 -43z"/>
<path d="M8690 3303 c-35 -12 -92 -58 -112 -91 -15 -25 -21 -51 -21 -93 0 -67
27 -118 89 -166 34 -25 45 -28 119 -28 72 0 86 3 123 28 83 54 104 152 54 248
-36 68 -106 109 -186 108 -28 0 -58 -3 -66 -6z m151 -89 c22 -20 51 -120 44
-153 -8 -38 -30 -57 -83 -71 -51 -13 -92 -3 -129 32 -18 17 -23 32 -23 75 0
99 46 147 130 136 25 -3 52 -12 61 -19z"/>
<path d="M8725 3146 c-12 -8 -16 -23 -13 -51 3 -38 4 -40 38 -40 19 1 40 -5
46 -13 9 -12 13 -12 27 3 9 9 17 25 17 35 0 41 -84 89 -115 66z"/>
<path d="M4385 3131 c-90 -26 -153 -62 -227 -131 -97 -88 -160 -188 -202 -318
-95 -297 -65 -595 94 -913 39 -77 133 -219 162 -245 21 -19 21 -19 15 15 -17
84 -30 282 -30 451 0 185 16 353 49 510 35 169 131 415 227 579 21 34 37 64
37 67 0 9 -69 2 -125 -15z"/>
</g>
</svg>
